<svg width="37" height="36" viewBox="0 0 37 36" fill="none" xmlns="http://www.w3.org/2000/svg">
<path d="M17.3211 0.00968773C17.2437 0.0167248 16.9974 0.0413546 16.7757 0.0589473C11.6625 0.519877 6.87302 3.27842 3.83959 7.51826C2.15044 9.87569 1.07009 12.5498 0.661877 15.3822C0.517595 16.3709 0.5 16.663 0.5 18.0035C0.5 19.3441 0.517595 19.6361 0.661877 20.6248C1.64018 27.384 6.45073 33.0629 12.9751 35.167C14.1434 35.5435 15.3751 35.8003 16.7757 35.9551C17.3211 36.015 19.6789 36.015 20.2243 35.9551C22.6419 35.6877 24.69 35.0896 26.71 34.0586C27.0196 33.9003 27.0795 33.8581 27.0372 33.8229C27.0091 33.8018 25.6894 32.032 24.1059 29.8927L21.2273 26.0047L17.6202 20.6671C15.6355 17.7326 14.0026 15.3329 13.9886 15.3329C13.9745 15.3294 13.9604 17.7009 13.9534 20.5967C13.9428 25.6669 13.9393 25.871 13.876 25.9906C13.7845 26.163 13.7141 26.2334 13.5663 26.3108C13.4537 26.3671 13.3551 26.3777 12.8238 26.3777H12.215L12.0531 26.2756C11.9475 26.2088 11.8701 26.1208 11.8173 26.0188L11.7434 25.8604L11.761 11.7476L11.8701 11.6103C11.9264 11.5364 12.046 11.4414 12.1305 11.3957C12.2748 11.3253 12.3311 11.3183 12.9399 11.3183C13.6578 11.3183 13.7774 11.3464 13.9639 11.5505C14.0167 11.6068 15.9698 14.5483 18.3064 18.0915C20.6431 21.6347 23.8384 26.4727 25.4079 28.8477L28.2584 33.1649L28.4026 33.0699C29.6801 32.2396 31.0314 31.0573 32.1012 29.8258C34.378 27.2116 35.8455 24.0238 36.3381 20.6248C36.4824 19.6361 36.5 19.3441 36.5 18.0035C36.5 16.663 36.4824 16.3709 36.3381 15.3822C35.3598 8.62308 30.5493 2.94415 24.0249 0.840064C22.8742 0.467099 21.6496 0.210245 20.2771 0.0554288C19.9393 0.0202434 17.6132 -0.0184606 17.3211 0.00968773ZM24.69 10.8961C24.8589 10.9805 24.9962 11.1424 25.0455 11.3113C25.0736 11.4027 25.0806 13.359 25.0736 17.7678L25.063 24.0941L23.9475 22.3841L22.8284 20.6741V16.0754C22.8284 13.1022 22.8425 11.4309 22.8636 11.35C22.9199 11.1529 23.0431 10.9981 23.212 10.9066C23.3563 10.8327 23.4091 10.8257 23.9616 10.8257C24.4824 10.8257 24.5739 10.8327 24.69 10.8961Z" fill="white"/>
</svg>
