<svg width="37" height="36" viewBox="0 0 37 36" fill="none" xmlns="http://www.w3.org/2000/svg">
<path d="M21.5137 17.9729C21.5137 16.3592 20.1645 15.0508 18.5 15.0508C16.8356 15.0508 15.4863 16.3592 15.4863 17.9729C15.4863 19.5868 16.8356 20.8951 18.5 20.8951C20.1645 20.8951 21.5137 19.5868 21.5137 17.9729Z" fill="#53C1DE"/>
<path fill-rule="evenodd" clip-rule="evenodd" d="M28.2879 12.5479C28.9244 10.0404 29.7244 5.39042 26.9042 3.81393C24.0972 2.24432 20.4445 5.25198 18.5157 7.05733C16.5925 5.26997 12.8371 2.27516 10.0193 3.85665C7.21344 5.43153 8.07872 10.0044 8.72926 12.5276C6.11185 13.2485 1.625 14.801 1.625 17.9729C1.625 21.1358 6.10718 22.8249 8.7091 23.545C8.05615 26.0822 7.2342 30.5898 10.0437 32.1611C12.8719 33.7423 16.6157 30.8188 18.5623 28.9937C20.5035 30.8097 24.1212 33.7523 26.9287 32.1766C29.7451 30.5958 29.0115 26.0082 28.361 23.4703C30.8832 22.7486 35.375 21.0964 35.375 17.9729C35.375 14.8314 30.8641 13.2663 28.2879 12.5479ZM27.9683 22.1253C27.5411 20.8143 26.9645 19.4201 26.2592 17.9798C26.9324 16.5736 27.4866 15.1974 27.9018 13.8947C29.7904 14.4256 33.9333 15.639 33.9333 17.9729C33.9333 20.3287 29.9577 21.5535 27.9683 22.1253ZM26.2062 30.9668C24.1116 32.1424 20.9999 29.3284 19.5663 27.991C20.5173 26.9825 21.4677 25.81 22.3953 24.5081C24.027 24.3677 25.5684 24.1382 26.9663 23.8249C27.4242 25.6201 28.3103 29.7858 26.2062 30.9668ZM10.7641 30.95C8.6691 29.7788 9.62665 25.7565 10.107 23.8875C11.4894 24.184 13.0196 24.3973 14.6552 24.5259C15.5889 25.7999 16.5668 26.9709 17.5523 27.9964C16.3347 29.1384 12.8688 32.1266 10.7641 30.95ZM3.06667 17.9729C3.06667 15.6082 7.18482 14.4037 9.11642 13.8742C9.53883 15.2061 10.0928 16.5987 10.7614 18.0069C10.0842 19.4362 9.52225 20.8509 9.09596 22.1985C7.25415 21.6873 3.06667 20.339 3.06667 17.9729ZM10.7417 5.06648C12.8452 3.88593 16.1091 6.76106 17.5054 8.05515C16.5249 9.07599 15.556 10.2382 14.6304 11.5048C13.0431 11.6474 11.5236 11.8765 10.1267 12.1834C9.60266 10.1483 8.6404 6.24576 10.7417 5.06648ZM23.4267 13.0242C24.5036 13.156 25.5353 13.3312 26.504 13.5457C26.2132 14.4496 25.8507 15.3947 25.4238 16.3635C24.8049 15.2249 24.1406 14.1093 23.4267 13.0242ZM18.5161 9.05412C19.1811 9.75259 19.8471 10.5326 20.5022 11.3788C19.1733 11.3179 17.8422 11.3176 16.5133 11.3779C17.169 10.5395 17.8407 9.7607 18.5161 9.05412ZM11.5886 16.3625C11.1687 15.397 10.8095 14.4477 10.5161 13.531C11.4791 13.322 12.506 13.1512 13.5759 13.0216C12.8599 14.1043 12.1967 15.2195 11.5886 16.3625ZM13.6066 23.0239C12.5013 22.9043 11.4589 22.7423 10.4963 22.5391C10.7942 21.6061 11.1614 20.6364 11.5902 19.6502C12.2068 20.8049 12.88 21.931 13.6066 23.0239ZM18.556 26.9904C17.8727 26.2755 17.1911 25.4847 16.5254 24.6342C17.8619 24.6851 19.201 24.6852 20.5373 24.6274C19.8801 25.4934 19.2165 26.2853 18.556 26.9904ZM25.4376 19.6C25.8887 20.5969 26.2689 21.5614 26.571 22.4785C25.5923 22.6951 24.5359 22.8694 23.4226 22.9989C24.1419 21.8933 24.8167 20.7603 25.4376 19.6ZM21.5907 23.1683C19.5464 23.3099 17.4893 23.3084 15.4443 23.1799C14.2822 21.5341 13.2479 19.8033 12.355 18.0065C13.2435 16.2134 14.2704 14.486 15.427 12.8428C17.4735 12.6928 19.5326 12.6924 21.579 12.8436C22.7256 14.4868 23.7509 16.2097 24.6601 17.9866C23.7617 19.7789 22.7295 21.5098 21.5907 23.1683ZM26.1841 5.02492C28.2882 6.2016 27.3516 10.3807 26.8919 12.1979C25.4918 11.8846 23.9713 11.6515 22.3793 11.5067C21.4519 10.2263 20.491 9.06208 19.5264 8.05442C20.9407 6.73246 24.1003 3.85975 26.1841 5.02492Z" fill="#53C1DE"/>
</svg>
