<svg width="37" height="36" viewBox="0 0 37 36" fill="none" xmlns="http://www.w3.org/2000/svg">
<circle cx="18.5" cy="18" r="15.75" fill="#8892BF"/>
<path d="M16.7441 11.25H18.6341L18.1 14.0897H19.7983C20.7296 14.1097 21.4235 14.3178 21.8801 14.7142C22.3458 15.1106 22.4827 15.8641 22.291 16.9741L21.3733 21.9251H19.4559L20.3324 17.1971C20.4237 16.7014 20.3963 16.3496 20.2503 16.1415C20.1043 15.9334 19.7892 15.8293 19.3052 15.8293L17.785 15.8144L16.6619 21.9251H14.7718L16.7441 11.25Z" fill="white"/>
<path fill-rule="evenodd" clip-rule="evenodd" d="M8.08353 14.0898H11.7541C12.8314 14.0996 13.6121 14.4368 14.0961 15.1008C14.5801 15.7648 14.7398 16.6717 14.5755 17.8216C14.5116 18.347 14.37 18.8624 14.1509 19.3679C13.9408 19.8734 13.6488 20.3292 13.2743 20.7357C12.8177 21.251 12.3293 21.5781 11.8089 21.717C11.2884 21.8558 10.7496 21.9251 10.1927 21.9251H8.5492L8.02875 24.75H6.125L8.08353 14.0898ZM8.86421 20.2451L9.68323 15.7996H9.95989C10.0604 15.7996 10.1653 15.7945 10.2749 15.7847C11.0054 15.7749 11.6125 15.8492 12.0965 16.0077C12.5895 16.1662 12.7539 16.766 12.5895 17.8067C12.3887 19.0458 11.9959 19.7693 11.4117 19.9774C10.8274 20.1758 10.0968 20.2697 9.2203 20.2599H9.02856C8.97378 20.2599 8.91899 20.2549 8.86421 20.2451Z" fill="white"/>
<path fill-rule="evenodd" clip-rule="evenodd" d="M27.9911 14.0898H24.3206L22.362 24.75H24.2658L24.7862 21.9251H26.4298C26.9866 21.9251 27.5254 21.8558 28.0459 21.717C28.5663 21.5781 29.0547 21.251 29.5114 20.7357C29.8858 20.3292 30.1778 19.8734 30.3879 19.3679C30.607 18.8624 30.7487 18.347 30.8125 17.8216C30.9768 16.6717 30.8171 15.7648 30.3331 15.1008C29.8491 14.4368 29.0684 14.0996 27.9911 14.0898ZM25.9203 15.7996L25.1012 20.2451C25.156 20.2549 25.2108 20.2599 25.2656 20.2599H25.4573C26.3339 20.2697 27.0644 20.1758 27.6487 19.9774C28.233 19.7693 28.6258 19.0458 28.8266 17.8067C28.9909 16.766 28.8266 16.1662 28.3335 16.0077C27.8495 15.8492 27.2425 15.7749 26.5119 15.7847C26.4024 15.7945 26.2975 15.7996 26.1969 15.7996H25.9203Z" fill="white"/>
</svg>
