<svg width="37" height="36" viewBox="0 0 37 36" fill="none" xmlns="http://www.w3.org/2000/svg">
<circle cx="18.91" cy="18" r="15.75" fill="#028CB0"/>
<path d="M8.17234 18C8.17234 22.2551 10.6473 25.92 14.2266 27.662L9.10523 13.6307C8.49026 15.0052 8.17237 16.4941 8.17234 18ZM18.91 28.7377C20.1571 28.7377 21.3565 28.5187 22.4797 28.1285L22.4036 27.9857L19.1004 18.9424L15.8829 28.2998C16.8348 28.5854 17.8534 28.7377 18.91 28.7377ZM20.3855 12.9643L24.2694 24.5112L25.345 20.9319C25.802 19.4469 26.1542 18.3808 26.1542 17.4574C26.1542 16.1247 25.6782 15.2109 25.2784 14.5064C24.7263 13.6116 24.2218 12.8596 24.2218 11.9838C24.2218 10.9938 24.9643 10.08 26.0304 10.08H26.1637C24.1852 8.26365 21.5959 7.25783 18.91 7.26231C17.1317 7.26198 15.3811 7.70374 13.8158 8.54785C12.2506 9.39197 10.9197 10.612 9.94292 12.0981L10.6283 12.1171C11.7516 12.1171 13.4841 11.9743 13.4841 11.9743C14.0743 11.9458 14.1409 12.793 13.5602 12.8596C13.5602 12.8596 12.9796 12.9358 12.3227 12.9643L16.2446 24.5968L18.5959 17.5526L16.9205 12.9643C16.5452 12.9436 16.1707 12.9119 15.7972 12.8691C15.2166 12.8311 15.2832 11.9458 15.8639 11.9743C15.8639 11.9743 17.6345 12.1171 18.6911 12.1171C19.8144 12.1171 21.5469 11.9743 21.5469 11.9743C22.1275 11.9458 22.2037 12.793 21.623 12.8596C21.623 12.8596 21.0423 12.9262 20.3855 12.9643ZM24.3074 27.2812C25.9318 26.3367 27.2799 24.9825 28.2171 23.3538C29.1542 21.7251 29.6475 19.879 29.6477 18C29.6477 16.1342 29.1718 14.3827 28.3341 12.8501C28.5042 14.5362 28.2489 16.2381 27.5916 17.8001L24.3074 27.2812ZM18.91 30.375C15.628 30.375 12.4804 29.0712 10.1596 26.7504C7.83883 24.4297 6.53503 21.2821 6.53503 18C6.53503 14.7179 7.83883 11.5703 10.1596 9.24955C12.4804 6.92879 15.628 5.625 18.91 5.625C22.1921 5.625 25.3397 6.92879 27.6605 9.24955C29.9812 11.5703 31.285 14.7179 31.285 18C31.285 21.2821 29.9812 24.4297 27.6605 26.7504C25.3397 29.0712 22.1921 30.375 18.91 30.375Z" fill="white"/>
</svg>
