<svg width="37" height="36" viewBox="0 0 37 36" fill="none" xmlns="http://www.w3.org/2000/svg">
<rect x="2.75" y="2.25" width="31.5" height="31.5" fill="#FFCA28"/>
<path d="M21.875 28.4487L24.1942 26.9141C24.376 27.4851 25.5269 28.8413 26.9808 28.8413C28.4346 28.8413 29.1096 28.0472 29.1096 27.5208C29.1096 26.0862 27.6251 25.5804 26.912 25.3375C26.7958 25.2979 26.7001 25.2652 26.6346 25.2367C26.6011 25.2221 26.5503 25.2027 26.4851 25.1778C25.6921 24.8748 22.7663 23.757 22.7663 20.5169C22.7663 16.948 26.2106 16.5376 26.9894 16.5376C27.499 16.5376 29.949 16.6001 31.1692 18.8931L28.9192 20.4634C28.426 19.4641 27.6064 19.134 27.1019 19.134C25.8558 19.134 25.5962 20.0475 25.5962 20.4634C25.5962 21.6302 26.9501 22.1532 28.0933 22.5948C28.3923 22.7104 28.677 22.8203 28.9192 22.9348C30.1654 23.5237 32 24.4873 32 27.5208C32 29.0402 30.7256 31.5001 27.5173 31.5001C23.2077 31.5001 22.0654 28.9127 21.875 28.4487Z" fill="#3E3E3E"/>
<path d="M10.625 28.7535L13.0423 27.2196C13.2317 27.7904 13.9677 28.8426 15.0356 28.8426C16.1035 28.8426 16.6501 27.7458 16.6501 27.2196V16.8751H19.623V27.2196C19.6711 28.6464 18.8798 31.5001 15.3874 31.5001C12.1764 31.5001 10.8415 29.5917 10.625 28.7535Z" fill="#3E3E3E"/>
</svg>
