<svg width="17" height="34" viewBox="0 0 17 34" fill="none" xmlns="http://www.w3.org/2000/svg">
<path d="M8.27203 25.0831C8.27203 25.0831 8.27203 13.427 8.65903 13.4281C8.95828 13.4281 9.34753 28.4637 9.34753 28.4637C8.81203 28.4007 8.27203 25.9899 8.27203 25.0831ZM15.7735 13.5631C14.7397 9.04512 12.475 5.16049 9.35203 2.16237L9.34416 2.15562C8.96391 1.57512 8.61628 0.909115 8.33728 0.207115L8.31028 0.130615C8.31141 0.153115 8.31141 0.180115 8.31141 0.207115C8.31141 0.84274 8.02678 1.41087 7.57791 1.79224L7.57453 1.79449C3.55378 5.20774 0.995534 10.2376 0.911159 15.866V15.8806C0.910034 15.9504 0.910034 16.0325 0.910034 16.1146C0.910034 21.6912 3.59316 26.6412 7.73878 29.744L7.78266 29.7755L7.88053 29.8464C8.06128 31.1844 8.21578 32.5254 8.34403 33.8694H9.02016C9.20691 32.192 9.45891 30.7239 9.78853 29.2839L9.73678 29.5527C10.1823 29.2434 10.5715 28.9227 10.9349 28.5751L10.9315 28.5785C14.0827 25.6569 16.0492 21.4944 16.0492 16.874C16.0492 16.8054 16.0492 16.7379 16.048 16.6692V16.6794C16.0447 15.5757 15.9445 14.4969 15.7544 13.4495L15.7713 13.5609L15.7735 13.5631Z" fill="white"/>
</svg>
