<svg width="37" height="36" viewBox="0 0 37 36" fill="none" xmlns="http://www.w3.org/2000/svg">
<circle cx="18.91" cy="18" r="15.75" fill="#0678BE"/>
<path d="M18.91 5.625C12.0935 5.625 6.53503 11.1834 6.53503 18C6.53503 24.8166 12.0935 30.375 18.91 30.375C25.7266 30.375 31.285 24.8166 31.285 18C31.285 11.2707 25.6393 5.625 18.91 5.625ZM18.91 25.875C15.1781 25.875 12.16 22.857 12.16 19.125C12.16 15.9625 14.2545 13.9735 16.1211 12.107C17.3586 10.8695 18.5571 9.2099 18.91 7.875C19.2641 9.21104 20.442 10.8695 21.699 12.107C23.5656 13.9735 25.66 15.9625 25.66 19.125C25.66 22.857 22.642 25.875 18.91 25.875Z" fill="white"/>
</svg>
