<svg width="37" height="36" viewBox="0 0 37 36" fill="none" xmlns="http://www.w3.org/2000/svg">
<path d="M19.819 2.58606C19.0205 2.13697 17.9795 2.13899 17.1803 2.58606C13.1775 4.79505 9.17467 7.00471 5.17118 9.21269C4.39215 9.62251 3.86672 10.4591 3.8751 11.3274V24.6744C3.86947 25.5597 4.422 26.4043 5.22111 26.8085C6.37105 27.4203 7.48828 28.0942 8.65899 28.6653C10.0113 29.3297 11.7032 29.4767 13.0721 28.7837C14.1832 28.2093 14.6767 26.9319 14.6754 25.758C14.6843 21.3532 14.6767 16.9482 14.6788 12.5433C14.7052 12.3476 14.5583 12.1383 14.3447 12.1431C13.8332 12.135 13.321 12.1383 12.8094 12.1417C12.6161 12.1234 12.4275 12.284 12.4421 12.4783C12.4352 16.8547 12.4434 21.2325 12.4379 25.6097C12.4491 26.2152 12.04 26.7971 11.4565 27.0016C10.1088 27.474 6.26222 24.9764 6.26222 24.9764C6.12106 24.911 6.03142 24.7579 6.04525 24.6058C6.04525 20.2023 6.04594 15.7987 6.04525 11.3959C6.02585 11.2184 6.13526 11.0585 6.29827 10.9861C10.2879 8.79008 14.2754 6.5886 18.265 4.39128C18.4035 4.2988 18.5968 4.29908 18.735 4.39196C22.7246 6.58861 26.7128 8.78806 30.7031 10.9841C30.8667 11.0565 30.9714 11.2191 30.9548 11.3959C30.9541 15.7987 30.9561 20.2023 30.9534 24.6052C30.9652 24.761 30.8847 24.912 30.7392 24.9804C26.7868 27.1645 22.7895 29.2781 18.8729 31.5256C18.702 31.6236 18.5085 31.7347 18.317 31.6267C17.287 31.057 16.2696 30.4651 15.243 29.8899C15.1315 29.8202 14.9893 29.7904 14.8729 29.8682C14.4126 30.1108 13.9798 30.3073 13.4513 30.5165C12.7089 30.8103 12.8276 30.9305 13.497 31.3205C14.6975 31.9999 15.9 32.6767 17.1005 33.3567C17.8908 33.8499 18.9527 33.885 19.7684 33.4292C23.7719 31.223 27.774 29.0142 31.7782 26.808C32.5753 26.4015 33.1305 25.5602 33.1249 24.6743V11.3274C33.1326 10.4767 32.6273 9.65505 31.8718 9.23917C27.8551 7.01941 23.8364 4.80447 19.819 2.58606Z" fill="#8CC84B"/>
<path d="M25.8596 12.607C24.2883 11.7664 22.419 11.7216 20.6729 11.8315C19.4115 11.9561 18.0848 12.3042 17.1657 13.2085C16.2231 14.1175 16.0179 15.5854 16.4657 16.7721C16.7865 17.6106 17.5941 18.1559 18.4293 18.4444C19.5052 18.8242 20.6351 18.9416 21.7654 19.0591C22.7964 19.1662 23.8277 19.2734 24.8186 19.5797C25.2234 19.7139 25.6947 19.9191 25.8187 20.3594C25.9332 20.881 25.8077 21.4872 25.3842 21.8496C24.0391 22.9142 20.2976 22.7511 18.9686 21.9132C18.4314 21.5562 18.1998 20.9243 18.1057 20.3222C18.0952 20.1345 17.9442 19.9624 17.7404 19.9766C17.2302 19.9706 16.7201 19.9719 16.2099 19.976C16.0318 19.961 15.8468 20.0877 15.837 20.2693C15.7322 23.0275 18.2653 24.2299 20.6418 24.4946C21.9997 24.624 23.3873 24.6166 24.7243 24.3252C25.7294 24.0964 26.7371 23.675 27.429 22.9008C28.2822 21.96 28.4499 20.5592 28.0673 19.3873C27.7748 18.5129 26.9388 17.952 26.0842 17.6634C24.9222 17.2649 23.5449 17.0508 22.4924 16.9505C20.9625 16.8048 19.1445 16.8643 18.7115 15.859C18.5388 15.3326 18.6858 14.679 19.1695 14.3552C20.4494 13.487 23.0543 13.6023 24.3798 14.2509C24.9885 14.5557 25.3411 15.1816 25.4867 15.8136C25.5137 15.9992 25.6386 16.1929 25.8535 16.1848C26.3601 16.1949 26.8668 16.1875 27.3734 16.1882C27.5475 16.2004 27.738 16.1021 27.772 15.924C27.7506 14.6032 27.0761 13.2512 25.8596 12.607Z" fill="#8CC84B"/>
</svg>
